<svg width="32" height="32" viewBox="0 0 32 32" fill="none" xmlns="http://www.w3.org/2000/svg">
<rect width="31.88" height="32" fill="#FF6B6B"/>
<path d="M9.09 20.63H8.09C8.01667 20.63 7.96667 20.6167 7.94 20.59C7.91333 20.57 7.9 20.52 7.9 20.44V11.23C7.9 11.1567 7.91333 11.1067 7.94 11.08C7.96667 11.0533 8.01667 11.04 8.09 11.04H9.09C9.16333 11.04 9.21333 11.0533 9.24 11.08C9.26667 11.1067 9.28 11.1567 9.28 11.23V20.44C9.28 20.52 9.26667 20.57 9.24 20.59C9.21333 20.6167 9.16333 20.63 9.09 20.63ZM7.16 17.97C6.86 18.03 6.52667 18.0833 6.16 18.13C5.79333 18.1767 5.41333 18.2167 5.02 18.25C4.63333 18.2767 4.24333 18.2933 3.85 18.3C3.46333 18.3067 3.09667 18.3033 2.75 18.29C2.45667 18.2833 2.25667 18.2267 2.15 18.12C2.05 18.0133 2 17.8333 2 17.58V14.97C2 14.7567 2.04667 14.6067 2.14 14.52C2.23333 14.4333 2.38667 14.39 2.6 14.39H4.96C5.02 14.39 5.05667 14.3833 5.07 14.37C5.09 14.35 5.1 14.31 5.1 14.25V13.03C5.1 12.97 5.09 12.9333 5.07 12.92C5.05667 12.9 5.02 12.89 4.96 12.89H2.26C2.12667 12.89 2.06 12.8267 2.06 12.7V11.94C2.06 11.8667 2.07333 11.8167 2.1 11.79C2.13333 11.7633 2.18667 11.75 2.26 11.75H5.79C5.93667 11.75 6.05333 11.7633 6.14 11.79C6.23333 11.81 6.30333 11.8467 6.35 11.9C6.40333 11.9533 6.43667 12.0233 6.45 12.11C6.47 12.1967 6.48 12.3067 6.48 12.44V14.75C6.48 15.03 6.42333 15.22 6.31 15.32C6.19667 15.4133 6.02 15.46 5.78 15.46H3.5C3.41333 15.46 3.37 15.5033 3.37 15.59V17.04C3.37 17.1267 3.42 17.17 3.52 17.17C4.11333 17.1833 4.71 17.1667 5.31 17.12C5.91 17.0733 6.47667 17 7.01 16.9C7.08333 16.8867 7.12667 16.8933 7.14 16.92C7.16 16.94 7.17667 16.9767 7.19 17.03L7.32 17.77C7.33333 17.8433 7.32667 17.8933 7.3 17.92C7.28 17.94 7.23333 17.9567 7.16 17.97ZM13.7543 15.51C13.4143 15.51 13.0976 15.4633 12.8043 15.37C12.511 15.27 12.2543 15.1333 12.0343 14.96C11.821 14.78 11.651 14.57 11.5243 14.33C11.4043 14.0833 11.3443 13.81 11.3443 13.51C11.3443 13.2233 11.4043 12.9567 11.5243 12.71C11.651 12.4633 11.821 12.25 12.0343 12.07C12.2543 11.89 12.511 11.75 12.8043 11.65C13.0976 11.5433 13.4143 11.49 13.7543 11.49C14.101 11.49 14.421 11.5433 14.7143 11.65C15.0143 11.75 15.271 11.89 15.4843 12.07C15.6976 12.25 15.8643 12.4633 15.9843 12.71C16.111 12.9567 16.1743 13.2233 16.1743 13.51C16.1743 13.81 16.111 14.0833 15.9843 14.33C15.8643 14.57 15.6976 14.78 15.4843 14.96C15.271 15.1333 15.0143 15.27 14.7143 15.37C14.421 15.4633 14.101 15.51 13.7543 15.51ZM18.5043 20.63H17.4843C17.411 20.63 17.361 20.6167 17.3343 20.59C17.3076 20.57 17.2943 20.52 17.2943 20.44V18.69H15.7043C15.6443 18.69 15.5943 18.68 15.5543 18.66C15.521 18.6333 15.5043 18.58 15.5043 18.5V17.77C15.5043 17.69 15.5243 17.64 15.5643 17.62C15.6043 17.6 15.651 17.59 15.7043 17.59H17.2943V11.23C17.2943 11.1567 17.3076 11.1067 17.3343 11.08C17.361 11.0533 17.411 11.04 17.4843 11.04H18.5043C18.5776 11.04 18.6276 11.0533 18.6543 11.08C18.681 11.1067 18.6943 11.1567 18.6943 11.23V20.44C18.6943 20.52 18.681 20.57 18.6543 20.59C18.6276 20.6167 18.5776 20.63 18.5043 20.63ZM14.2543 20.36H13.2943C13.1543 20.36 13.0843 20.29 13.0843 20.15V17.26C12.7043 17.2733 12.331 17.28 11.9643 17.28C11.6043 17.28 11.2443 17.2767 10.8843 17.27C10.8043 17.2633 10.751 17.2433 10.7243 17.21C10.7043 17.1767 10.6943 17.1233 10.6943 17.05V16.33C10.6943 16.2567 10.7076 16.2067 10.7343 16.18C10.761 16.1467 10.811 16.13 10.8843 16.13C11.831 16.15 12.7843 16.1433 13.7443 16.11C14.7043 16.0767 15.6476 15.99 16.5743 15.85C16.6743 15.8367 16.7376 15.84 16.7643 15.86C16.7976 15.8733 16.821 15.9167 16.8343 15.99L16.9143 16.72C16.9276 16.8067 16.9176 16.86 16.8843 16.88C16.8576 16.9 16.811 16.9167 16.7443 16.93C16.3776 16.99 16.0043 17.0433 15.6243 17.09C15.2443 17.13 14.8576 17.1633 14.4643 17.19V20.15C14.4643 20.29 14.3943 20.36 14.2543 20.36ZM13.7543 12.62C13.461 12.62 13.211 12.7067 13.0043 12.88C12.7976 13.0467 12.6943 13.2567 12.6943 13.51C12.6943 13.6367 12.721 13.7567 12.7743 13.87C12.8343 13.9767 12.911 14.07 13.0043 14.15C13.1043 14.23 13.2176 14.2933 13.3443 14.34C13.4776 14.38 13.6143 14.4 13.7543 14.4C13.9076 14.4 14.0476 14.38 14.1743 14.34C14.3076 14.2933 14.421 14.23 14.5143 14.15C14.6143 14.07 14.691 13.9767 14.7443 13.87C14.7976 13.7567 14.8243 13.6367 14.8243 13.51C14.8243 13.2567 14.721 13.0467 14.5143 12.88C14.3143 12.7067 14.061 12.62 13.7543 12.62ZM28.7786 15.85H20.1986C20.1053 15.85 20.0486 15.8333 20.0286 15.8C20.0086 15.7667 19.9986 15.7133 19.9986 15.64V14.96C19.9986 14.8867 20.0119 14.8333 20.0386 14.8C20.0653 14.7667 20.1186 14.75 20.1986 14.75H28.7786C28.8386 14.75 28.8886 14.7667 28.9286 14.8C28.9686 14.8267 28.9886 14.88 28.9886 14.96V15.64C28.9886 15.78 28.9186 15.85 28.7786 15.85ZM27.4786 14.15H22.1886C21.8953 14.15 21.6853 14.0833 21.5586 13.95C21.4386 13.81 21.3786 13.61 21.3786 13.35V11.79C21.3786 11.5033 21.4353 11.3167 21.5486 11.23C21.6686 11.1367 21.8686 11.09 22.1486 11.09H27.4286C27.5553 11.09 27.6186 11.1533 27.6186 11.28V12C27.6186 12.0733 27.6053 12.1233 27.5786 12.15C27.5519 12.1767 27.5019 12.19 27.4286 12.19H22.9386C22.8319 12.19 22.7786 12.2433 22.7786 12.35V12.9C22.7786 13.0067 22.8319 13.06 22.9386 13.06H27.4786C27.6253 13.06 27.6986 13.1167 27.6986 13.23V13.94C27.6986 14.08 27.6253 14.15 27.4786 14.15ZM27.6486 20.59H22.0586C21.9119 20.59 21.7919 20.58 21.6986 20.56C21.6119 20.54 21.5453 20.5033 21.4986 20.45C21.4519 20.4033 21.4186 20.3367 21.3986 20.25C21.3853 20.17 21.3786 20.07 21.3786 19.95V18.63C21.3786 18.5033 21.3853 18.4 21.3986 18.32C21.4186 18.24 21.4519 18.1767 21.4986 18.13C21.5453 18.0833 21.6119 18.05 21.6986 18.03C21.7853 18.01 21.9019 18 22.0486 18H26.1386C26.1986 18 26.2286 17.9633 26.2286 17.89V17.64C26.2286 17.56 26.1953 17.52 26.1286 17.52H21.5586C21.4853 17.52 21.4319 17.5067 21.3986 17.48C21.3719 17.4533 21.3586 17.4 21.3586 17.32V16.65C21.3586 16.5233 21.4253 16.46 21.5586 16.46H26.8986C27.0453 16.46 27.1653 16.47 27.2586 16.49C27.3519 16.51 27.4219 16.5467 27.4686 16.6C27.5153 16.6467 27.5453 16.71 27.5586 16.79C27.5786 16.87 27.5886 16.97 27.5886 17.09V18.37C27.5886 18.5033 27.5786 18.6133 27.5586 18.7C27.5453 18.78 27.5153 18.8433 27.4686 18.89C27.4219 18.9367 27.3519 18.97 27.2586 18.99C27.1653 19.0033 27.0453 19.01 26.8986 19.01H22.8486C22.7819 19.01 22.7486 19.0433 22.7486 19.11V19.42C22.7486 19.4933 22.7853 19.53 22.8586 19.53H27.6386C27.7119 19.53 27.7653 19.54 27.7986 19.56C27.8319 19.58 27.8486 19.6333 27.8486 19.72V20.39C27.8486 20.5233 27.7819 20.59 27.6486 20.59Z" fill="white"/>
</svg>
